<svg id="Слой_1" data-name="Слой 1" xmlns="http://www.w3.org/2000/svg" viewBox="0 0 119.23 24.62"><defs><style>.cls-1{fill:#fefefe;}.cls-2{fill-rule:evenodd;}</style></defs><rect class="cls-1" x="0.37" y="0.71" width="118.35" height="23.84" rx="1.67"/><path d="M615,517.84v-4.68h2a3.58,3.58,0,0,1,1.09.12,1.18,1.18,0,0,1,.54.45,1.33,1.33,0,0,1,.2.74,1.28,1.28,0,0,1-.3.87,1.5,1.5,0,0,1-.93.43,2.63,2.63,0,0,1,.51.39,6,6,0,0,1,.53.76l.57.92H618l-.68-1a7.25,7.25,0,0,0-.5-.69.7.7,0,0,0-.28-.19,1.4,1.4,0,0,0-.48-.06h-.19v2Zm.94-2.7h.7a3.47,3.47,0,0,0,.85-.06.52.52,0,0,0,.26-.2.56.56,0,0,0,.1-.35.52.52,0,0,0-.13-.38.57.57,0,0,0-.35-.19h-1.43Z" transform="translate(-516.15 -495)"/><path d="M619.68,513.16h1v2.53a6,6,0,0,0,0,.78.77.77,0,0,0,.29.47,1,1,0,0,0,.62.17,1,1,0,0,0,.61-.16.66.66,0,0,0,.25-.41,6.56,6.56,0,0,0,0-.79v-2.59h.94v2.46a6.63,6.63,0,0,1-.07,1.19,1.27,1.27,0,0,1-.29.58,1.44,1.44,0,0,1-.55.39,2.5,2.5,0,0,1-.9.14,2.53,2.53,0,0,1-1-.16,1.32,1.32,0,0,1-.54-.4,1.18,1.18,0,0,1-.27-.52,5.84,5.84,0,0,1-.09-1.19Z" transform="translate(-516.15 -495)"/><path d="M624.17,516.31l.92-.08a1.19,1.19,0,0,0,.34.68,1.27,1.27,0,0,0,1.37,0,.59.59,0,0,0,.23-.45.39.39,0,0,0-.1-.28.71.71,0,0,0-.34-.21c-.11,0-.36-.1-.75-.2a2.5,2.5,0,0,1-1.07-.47,1.19,1.19,0,0,1-.43-.94,1.25,1.25,0,0,1,.2-.67,1.33,1.33,0,0,1,.59-.47,2.3,2.3,0,0,1,.92-.16,2,2,0,0,1,1.33.38,1.37,1.37,0,0,1,.46,1l-.94,0a.81.81,0,0,0-.26-.52,1,1,0,0,0-.6-.16,1.12,1.12,0,0,0-.65.17.34.34,0,0,0-.15.29.37.37,0,0,0,.14.28,2.5,2.5,0,0,0,.87.32,4.5,4.5,0,0,1,1,.33,1.3,1.3,0,0,1,.71,1.22,1.41,1.41,0,0,1-.23.76,1.35,1.35,0,0,1-.63.52,2.71,2.71,0,0,1-1,.17,2,2,0,0,1-1.36-.41A1.76,1.76,0,0,1,624.17,516.31Z" transform="translate(-516.15 -495)"/><path d="M544.11,504c-.57.52-2.25,2.37-2.61,2.7a.64.64,0,0,1-.9,0c-.25-.22-.77-.77-1.05-1.07s-.16-.71.19-1.1,4.62-4.62,4.9-4.92.49-.27.85-.27h1.56c.44,0,.64.22.64.71v16.35c0,.42-.22.5-.53.5H545.6c-.22,0-.39-.14-.39-.5v-11.9C545.21,503.57,544.64,503.52,544.11,504Z" transform="translate(-516.15 -495)"/><path d="M552.69,516.21v-1.62a1.45,1.45,0,0,1,.44-1c.38-.46,5.93-7,6.76-7.94a2.78,2.78,0,0,0,.11-2.53,2.6,2.6,0,0,0-2.36-1.34,2.31,2.31,0,0,0-2.23,1.73c-.22.55-.47.77-.83.77h-1.45c-.36,0-.39-.22-.39-.66a4.62,4.62,0,0,1,.66-2,5.42,5.42,0,0,1,2.34-2,5.81,5.81,0,0,1,4.29.11,5.16,5.16,0,0,1,2.72,3.63c.41,1.89-.47,3.35-1.73,4.89s-3.36,4-4.18,4.86c-.58.66-.14,1.13.58,1.13h4.5c.47,0,.85.14.85.57v1.35c0,.47-.22.72-.68.72h-8.82A.58.58,0,0,1,552.69,516.21Z" transform="translate(-516.15 -495)"/><path d="M574.32,499.26a.66.66,0,0,1,.66.71v1.29c0,.47-.14.61-.66,1.3s-1.92,2.44-2.5,3.16-.3,1,.22,1.31a5.86,5.86,0,0,1,2.25,1.76,5.12,5.12,0,0,1,.75,4.13,5.73,5.73,0,0,1-3.06,3.57,5.35,5.35,0,0,1-4.83-.52,5.67,5.67,0,0,1-2.17-3.25c-.22-.85.24-1.18.68-1.18a5.63,5.63,0,0,1,1.27.06c.36,0,.55.19.71.74a2.32,2.32,0,0,0,1.18,1.48,2.81,2.81,0,0,0,2.92-.35,2.53,2.53,0,0,0,.41-3.22c-.61-1.1-2.39-1.21-3-1.15s-.82-.17-.82-.64v-1.7a1.65,1.65,0,0,1,.46-1.18c.42-.47,1.54-1.82,2.15-2.61.55-.63.36-1.24-.52-1.24h-4.51c-.5,0-.63-.36-.63-.77v-1.1c0-.33.08-.6.63-.6Z" transform="translate(-516.15 -495)"/><path d="M609.24,498.41H616a.48.48,0,0,1,.54.49V500a1.61,1.61,0,0,1-.15.82c-.16.49-3.6,9.89-3.71,10.24s-.2.49-.45.49H610.9c-.18,0-.47-.14-.26-.72s3.27-8.92,3.56-9.66-.1-.78-.56-.78h-4.4c-.33,0-.42-.31-.42-.56v-1A.41.41,0,0,1,609.24,498.41Z" transform="translate(-516.15 -495)"/><path d="M617.6,498.41h6.76a.47.47,0,0,1,.53.49V500a1.68,1.68,0,0,1-.14.82c-.17.49-3.61,9.89-3.71,10.24s-.21.49-.45.49h-1.32c-.19,0-.48-.14-.27-.72s3.28-8.92,3.56-9.66-.1-.78-.55-.78H617.6c-.33,0-.41-.31-.41-.56v-1A.4.4,0,0,1,617.6,498.41Z" transform="translate(-516.15 -495)"/><path d="M626,498.41h6.75a.48.48,0,0,1,.54.49V500a1.61,1.61,0,0,1-.15.82c-.16.49-3.6,9.89-3.7,10.24s-.21.49-.46.49h-1.32c-.18,0-.47-.14-.26-.72s3.27-8.92,3.56-9.66-.1-.78-.55-.78H626c-.33,0-.42-.31-.42-.56v-1A.41.41,0,0,1,626,498.41Z" transform="translate(-516.15 -495)"/><path class="cls-2" d="M608.94,495h24.3a2.12,2.12,0,0,1,1.51.63h0a2.15,2.15,0,0,1,.63,1.51v20.32a2.19,2.19,0,0,1-.63,1.52h0a2.12,2.12,0,0,1-1.51.63H518.06a2.21,2.21,0,0,1-1.28-.62,2.18,2.18,0,0,1-.61-1.24v0h0v0h0v0h0v0h0v0h0v0h0v0h0v0h0v0h0V497.12h0v0h0v0h0v0h0v0h0v0h0v0h0v0h0v0h0v0a2.21,2.21,0,0,1,.61-1.25,2.14,2.14,0,0,1,1.28-.61h90.88Zm-2.15,22.47V497.15a1,1,0,0,0-.29-.71,1,1,0,0,0-.72-.3H518.14a.94.94,0,0,0-.55.28.91.91,0,0,0-.28.54h0v0h0v0h0v0h0v0h0v20.34h0v0h0v0h0v0h0v0h0a1,1,0,0,0,.28.55,1.07,1.07,0,0,0,.55.28h87.64a1,1,0,0,0,1-1Zm26.45-21.33h-24.3a1,1,0,0,0-.71.3,1,1,0,0,0-.3.71v20.32a1,1,0,0,0,1,1h24.3a1,1,0,0,0,.71-.29,1,1,0,0,0,.3-.72V497.15a1,1,0,0,0-1-1Z" transform="translate(-516.15 -495)"/></svg>