<svg id="Слой_1" data-name="Слой 1" xmlns="http://www.w3.org/2000/svg" viewBox="0 0 28.56 25.47"><defs><style>.cls-1{fill:#ffed00;fill-rule:evenodd;}</style></defs><path class="cls-1" d="M689.41,523.39v0c0-.19-.1-1.55-.14-1.84s-.17-.24-.32-.26l-.14,0h0a8.69,8.69,0,0,1-1.12-.21c-.41-.09-.79-.09-.9-.37-.29-.79-.31-.64.14-1.2.05,0,.24-.3.27-.32a4.7,4.7,0,0,1,.51-.63c.07-.23.44-.34.17-.67s-.59-.81-.84-1.14-.25-.44-.48-.49-.49.2-.73.24a1.93,1.93,0,0,1-.35.15l-.19.07c-.08,0-.1.06-.19.06a2.2,2.2,0,0,1-.72.25,1.29,1.29,0,0,1-.5-.33c-.2-.16-.26-.19-.22-.53.05-.52.11-1,.16-1.54,0-.24.11-.49-.11-.61l-1.75-.69h-.05l0,0-.15,0-.07,0c-.22.12-.13.18-.27.26a4.44,4.44,0,0,1-.45.62,3.64,3.64,0,0,1-.24.35c-.55.81-.44.62-1,.58-.22,0-.33,0-.46-.16s-.25-.46-.39-.76v-3.72h-1.47V515c-1.44-.08-2.76-.06-4.37-.06h-.29L668,520.42c-1.24.06-6.09.47-6.84,3.15a7.63,7.63,0,0,0-.29,1.66,4.32,4.32,0,0,0,.4,2.22,2.39,2.39,0,0,0,1.49,1.25,2.35,2.35,0,0,0,.53.09l.62,0h.33a3.66,3.66,0,0,0,7.31,0l5.78,0v7.07h1.47v-2.1H679c.45,0,.36-.29.51-.57l0-.07a3.27,3.27,0,0,1,.22-.67l0-.15,0-.07s0,0,0,0a1.65,1.65,0,0,1,.11-.36c0-.16.11-.31.23-.36a2.86,2.86,0,0,1,.42-.1l.34-.07,0,0h0c.52-.17.56.17.94.51l.42.45c.6.61.56.76,1,.53a3,3,0,0,1,.53-.28,2.5,2.5,0,0,1,.39-.23l.4-.22c.12-.07.29-.12.27-.35s-.1-.33-.11-.49a10.49,10.49,0,0,1-.26-1.13c-.17-.66-.14-.59.26-1s.38-.45,1-.31l1.32.33.34.08c.17,0,.17-.08.26-.25l.19-.36c.09-.17.27-.54.37-.68.12-.33.48-.61.16-.89-.12-.1-.21-.21-.32-.32a1.56,1.56,0,0,1-.31-.32,6,6,0,0,1-.54-.51c-.34-.32-.38-.32-.31-.7l0-.17c.11-.42,0-.5.42-.64a3.49,3.49,0,0,1,.72-.23,2.72,2.72,0,0,1,.73-.25c0-.05.05,0,.09,0s.35-.11.39-.23l0,0,0-.14Zm-19.82,7a2.38,2.38,0,0,1-3.37,0,2.36,2.36,0,0,1-.69-1.68,2.42,2.42,0,0,1,0-.47.14.14,0,0,0,0-.06,2.65,2.65,0,0,1,.12-.37l0-.09a2.11,2.11,0,0,1,.16-.3l.07-.1a2.52,2.52,0,0,1,.21-.25l.09-.08a1.64,1.64,0,0,1,.24-.21l.1-.07.28-.15.12-.05.31-.1.12,0a2.1,2.1,0,0,1,.91,0l.13,0,.3.1a.52.52,0,0,1,.13.06l.26.14.13.08a1.9,1.9,0,0,1,.21.19l.12.11.18.22.09.12.15.28.05.1a1.66,1.66,0,0,1,.11.38l0,0a2.42,2.42,0,0,1,0,.47A2.36,2.36,0,0,1,669.59,530.4Zm7.72-2.89-5.94,0s0-.09,0-.13l-.09-.21c-.07-.15-.15-.29-.23-.43a.75.75,0,0,1-.07-.12,4.31,4.31,0,0,0-.39-.46l0-.06-.1-.08s-.09-.1-.15-.14l-.16-.11-.24-.17-.34-.19-.26-.12-.42-.13a1.55,1.55,0,0,0-.23-.06,3.11,3.11,0,0,0-.69-.07,3.26,3.26,0,0,0-.7.07,1.09,1.09,0,0,0-.24.07,2.64,2.64,0,0,0-.4.12l-.28.13a3.07,3.07,0,0,0-.31.17,2.61,2.61,0,0,0-.27.19.71.71,0,0,0-.14.1l-.14.13-.11.09-.06.07a3.91,3.91,0,0,0-.37.44l-.09.16a2.93,2.93,0,0,0-.21.39l-.09.22-.06.12h-.5l-.57,0a1,1,0,0,1-.25,0,1.14,1.14,0,0,1-.7-.62,3,3,0,0,1-.26-1.55,6.44,6.44,0,0,1,.24-1.39c.6-2.15,5.91-2.22,5.93-2.22h.29l4.64-5.46h3.86l.19,0Zm1.5-7.67a3.6,3.6,0,0,1,.56,0,3.48,3.48,0,0,1-.56,6.93Zm6.72,4.42a6.7,6.7,0,0,1-6.72,5.78v-2.3a4.42,4.42,0,0,0,.69-8.79,5.32,5.32,0,0,0-.69,0v-2.3a7,7,0,0,1,1,.07A6.71,6.71,0,0,1,685.53,524.26Z" transform="translate(-660.87 -510.39)"/></svg>