<svg id="Слой_1" data-name="Слой 1" xmlns="http://www.w3.org/2000/svg" viewBox="0 0 56.22 56.22"><defs><style>.cls-1{fill:#1c1c1c;fill-rule:evenodd;}</style></defs><path class="cls-1" d="M540.33,512.22a28.13,28.13,0,1,1-19.87,8.24,28,28,0,0,1,19.87-8.24Zm18.88,9.24A26.69,26.69,0,1,0,567,540.33,26.63,26.63,0,0,0,559.21,521.46Z" transform="translate(-512.22 -512.22)"/><polygon class="cls-1" points="24.75 33.54 31.47 33.54 33.22 11.82 23 11.82 24.75 33.54"/><path class="cls-1" d="M540.33,556.62a3.36,3.36,0,1,0-3.36-3.36A3.37,3.37,0,0,0,540.33,556.62Z" transform="translate(-512.22 -512.22)"/></svg>