<svg id="Слой_1" data-name="Слой 1" xmlns="http://www.w3.org/2000/svg" viewBox="0 0 29.66 31.9"><defs><style>.cls-1{fill:#154a6e;}.cls-1,.cls-2,.cls-3{fill-rule:evenodd;}.cls-2{fill:#0570b6;}.cls-3{fill:#fefefe;}</style></defs><path class="cls-1" d="M446.58,626.47c.05.12.09.24.13.37a5.94,5.94,0,0,1,.26,1.82,2.21,2.21,0,0,1-.14.78,2.41,2.41,0,0,1-.15.63,4.28,4.28,0,0,1-4.08,3,4.07,4.07,0,0,1-1.75-.38,2.31,2.31,0,0,1-1,.25h-.7a2.13,2.13,0,0,1-1.07-.27,2.18,2.18,0,0,1-1.07.27h-.71a2.1,2.1,0,0,0-.82,0l-10.82,6.25a2.21,2.21,0,0,1-2.25,0,2.19,2.19,0,0,1-1.13-1.95v-13a2.19,2.19,0,0,1-.88-.73,2.23,2.23,0,0,1-.31-2l1.19-3.59v-8a2.25,2.25,0,0,1,3.37-2l11.71,6.68h1.56a2.33,2.33,0,0,1,.38,0,2,2,0,0,1,.43,0h.64a2.16,2.16,0,0,1,1,.24,2.19,2.19,0,0,1,1-.24H442a2.32,2.32,0,0,1,.46,0,3,3,0,0,1,.42,0h.64a2.18,2.18,0,0,1,1,.22,2.31,2.31,0,0,1,1-.22h.77a2.25,2.25,0,0,1,1.81,3.59l-1,1.33,1,1.35a2.41,2.41,0,0,1,.3.6l.11.06a2.25,2.25,0,0,1,0,3.91Z" transform="translate(-419.93 -607.56)"/><polygon class="cls-2" points="3.56 2.26 3.56 29.64 27.4 15.87 3.56 2.26"/><path class="cls-3" d="M424.28,617.68l-1.39,4.44h-.7l1.76-5.31h.64l1.76,5.31h-.68l-1.39-4.44Zm5.42.31-2.45,4.13h-.59v-5.31h.65v4.12l2.44-4.12h.6v5.31h-.65V618Zm2.15-.5v4.63h-.64v-5.31h3.32v5.31h-.64v-4.63Zm6,4v.67h-2.5v-5.31h2.5v.63H436v1.7h1.85v.62H436v1.69Zm3.49,0V616.8H442v4.66h.43v1.72h-.61v-1.06h-3.14V616.8h.64v4.66Zm2.16-4.65v5.31h-.64v-5.31Zm1.86,5.31-1.79-2.68,1.87-2.63h.77l-1.94,2.63,1.9,2.68Z" transform="translate(-419.93 -607.56)"/><path class="cls-3" d="M424.44,628.39a1.71,1.71,0,0,0,.4,1.15,1.28,1.28,0,0,0,1,.48,1.25,1.25,0,0,0,1-.49,1.83,1.83,0,0,0,0-2.31,1.28,1.28,0,0,0-1-.48,1.24,1.24,0,0,0-1,.49,1.74,1.74,0,0,0-.4,1.16Zm3.57-.06a2.55,2.55,0,0,1-.63,1.71,1.93,1.93,0,0,1-1.52.74,2,2,0,0,1-1.53-.71,2.48,2.48,0,0,1-.62-1.68,2.53,2.53,0,0,1,.62-1.7,1.91,1.91,0,0,1,1.49-.73,2,2,0,0,1,1.54.7,2.4,2.4,0,0,1,.65,1.67Zm1.35,2.32h-.71v-4.53h.68v.57a1.5,1.5,0,0,1,1.2-.65c1.11,0,1.67.67,1.67,2v2.59h-.7v-2.42c0-1-.35-1.46-1-1.46a.92.92,0,0,0-.91.59,3,3,0,0,0-.19,1.23v2.06Zm4.41,0h-.68v-6.8h.68v6.8Zm1.59-6.42v.86h-.68v-.86Zm0,6.42h-.68v-4.51h.68v4.51Zm1.61,0h-.71v-4.53h.68v.57a1.48,1.48,0,0,1,1.2-.65c1.11,0,1.67.67,1.67,2v2.59h-.7v-2.42c0-1-.35-1.46-1.05-1.46a.93.93,0,0,0-.91.59,3.22,3.22,0,0,0-.18,1.23v2.06Zm5.64-3.9a1.28,1.28,0,0,0-.88.33,1.82,1.82,0,0,0-.51.89H444c-.22-.82-.67-1.22-1.35-1.22Zm1.18,2.51h.79a2,2,0,0,1-2,1.52,1.94,1.94,0,0,1-1.51-.71,2.44,2.44,0,0,1-.63-1.69,2.52,2.52,0,0,1,.62-1.69,2,2,0,0,1,2.74-.3,2.35,2.35,0,0,1,.75,1.13,3.84,3.84,0,0,1,.15,1.14H441.2a1.78,1.78,0,0,0,.48,1,1.25,1.25,0,0,0,.92.39A1.29,1.29,0,0,0,443.79,629.26Z" transform="translate(-419.93 -607.56)"/></svg>