<?xml version="1.0" encoding="utf-8"?>
<!-- Generator: Adobe Illustrator 24.1.2, SVG Export Plug-In . SVG Version: 6.00 Build 0)  -->
<svg version="1.1" id="Слой_1" xmlns="http://www.w3.org/2000/svg" xmlns:xlink="http://www.w3.org/1999/xlink" x="0px" y="0px"
	 viewBox="0 0 62 54" style="enable-background:new 0 0 62 54;" xml:space="preserve">
<style type="text/css">
	.st0{fill:#FFED00;}
</style>
<path class="st0" d="M59.2,23c-0.8,0-1.6-0.1-2.4-0.2c-0.2,0-0.3-0.1-0.4-0.3c-0.5-1.2-1-2.4-1.5-3.6l0.9-1.1c0.3-0.4,0.7-0.8,1-1.2
	c0.6-0.6,0.6-1.6,0-2.2c0,0-0.1-0.1-0.1-0.1c-1.2-1.3-2.5-2.5-3.8-3.8c-0.5-0.7-1.5-0.8-2.2-0.3c-0.1,0.1-0.1,0.1-0.2,0.2
	c-0.7,0.5-1.3,1.1-2,1.6c-0.2,0.1-0.4,0.2-0.6,0.1c-1-0.4-2-0.9-3-1.3c-0.3-0.1-0.5-0.3-0.5-0.6c-0.1-0.9-0.1-1.7-0.2-2.6
	c0-0.9-0.7-1.6-1.5-1.6c0,0,0,0,0,0h-5.1V1.8c0-0.9-0.7-1.5-1.6-1.5c-0.7,0-1.2,0.4-1.4,1.1c0,0.2,0,0.3,0,0.5v7.4h-6.1
	c-2.2,0-4.3,1-5.6,2.7c-2.2,2.7-4.2,5.5-6.3,8.2c-0.2,0.3-0.5,0.5-0.9,0.6c-3.2,0.9-6.5,1.8-9.7,2.7C3,24.1,1,26.6,1,29.5v4.3
	c0,0.4,0.1,0.8,0.1,1.2c0.7,2.9,3.4,4.9,6.3,4.8c0.4,0,0.6,0,0.8,0.5c1.4,4.2,5.9,6.4,10.1,5c2.4-0.8,4.2-2.6,5-5
	c0-0.3,0.3-0.5,0.7-0.5c0,0,0,0,0,0h10.5v12.5c0,0.8,0.5,1.4,1.2,1.6c0.7,0.2,1.4-0.2,1.7-0.9c0.1-0.3,0.2-0.6,0.2-0.9v-3.3h4.7
	c0.9,0.1,1.7-0.5,1.8-1.3c0-0.1,0-0.2,0-0.3c0.1-0.9,0.2-1.6,0.2-2.5c0-0.3,0.2-0.6,0.5-0.7c1-0.4,2-0.8,3-1.2
	c0.2-0.1,0.4,0,0.6,0.1c0.7,0.5,1.3,1.1,2,1.7c0.6,0.6,1.6,0.6,2.2,0c0,0,0,0,0,0c0,0,0.1-0.1,0.1-0.1c1.3-1.3,2.5-2.5,3.8-3.8
	c0.7-0.5,0.8-1.5,0.3-2.2c0,0,0,0,0,0l-0.2-0.2c-0.5-0.7-1.1-1.3-1.6-1.9c-0.2-0.2-0.3-0.6-0.1-0.9c0.5-1,0.9-2,1.3-3
	c0.1-0.2,0.2-0.3,0.4-0.3c0.8-0.1,1.6-0.2,2.4-0.2c0.8,0.1,1.6-0.4,1.9-1.2v-6.4C60.7,23.5,60,23,59.2,23z M15.8,42.7
	c-2.7,0-4.9-2.2-4.9-4.9c0-2.7,2.2-4.9,4.9-4.9c2.7,0,4.9,2.2,4.9,4.9C20.7,40.5,18.5,42.7,15.8,42.7C15.8,42.7,15.8,42.7,15.8,42.7
	z M34.4,36.7H23.7c-0.3-2.2-1.5-4.2-3.3-5.5c-1.4-1-3-1.5-4.7-1.5c-4,0.1-7.3,3-7.8,6.9c-1.7,0.4-3.4-0.8-3.8-2.5c0,0,0,0,0,0
	C4,34,4,33.8,4,33.7c0-1.5,0-2.9,0-4.3c0.1-1.5,1.1-2.7,2.6-3c2-0.6,4-1.1,6.1-1.6c1.5-0.4,2.9-0.8,4.4-1.2c0.6-0.1,1.1-0.5,1.5-1
	c2-2.7,4.1-5.3,6.1-8c1-1.5,2.7-2.3,4.5-2.2h5.3L34.4,36.7z M37.5,33.5V21.6c-0.1-0.3,0.1-0.6,0.4-0.7c0,0,0,0,0,0h0
	c3.7-0.5,7.2,2.1,7.7,5.8c0.5,3.2-1.4,6.3-4.4,7.4c-1.1,0.3-2.3,0.3-3.4,0C37.6,34.1,37.5,33.8,37.5,33.5L37.5,33.5z M57.9,29
	c-0.8,0.1-1.7,0.2-2.6,0.3c-1,0.1-1.5,0.4-1.7,1.4c-0.4,1.6-1,3.1-1.9,4.5c-0.5,0.6-0.4,1.5,0.2,2.1c0.5,0.7,1.1,1.3,1.6,2l-2.1,2.2
	L49.7,40c-1.1-0.9-1.5-0.9-2.7-0.2c-1.2,0.8-2.6,1.3-4,1.7c-1.1,0.3-1.4,0.7-1.6,1.8c-0.1,0.8-0.2,1.7-0.2,2.5h-3.7v-8.7
	c5.3,1.1,10.6-2.3,11.7-7.6c1.1-5.3-2.3-10.6-7.6-11.7c-1.4-0.3-2.7-0.3-4.1,0V9.2h3.6c0.1,0.8,0.2,1.5,0.2,2.3
	c0.1,1.4,0.4,1.6,1.7,2.1c1.4,0.5,2.7,1.1,4,1.7c0.7,0.6,1.8,0.5,2.4-0.2l1.8-1.5l0.1-0.1l2.1,2.1c-0.5,0.6-1,1.2-1.5,1.8
	c-0.8,1-0.8,1.4-0.2,2.6c0.8,1.3,1.3,2.7,1.7,4.1c0.3,1.1,0.6,1.4,1.8,1.5c0.9,0.1,1.7,0.2,2.6,0.3L57.9,29z"/>
</svg>
