<svg id="Слой_1" data-name="Слой 1" xmlns="http://www.w3.org/2000/svg" viewBox="0 0 63.07 62.73"><defs><style>.cls-1{fill:#ffed00;}.cls-1,.cls-2{fill-rule:evenodd;}</style></defs><path class="cls-1" d="M654.5,551a1,1,0,0,1-1.28,0l-29.77-30.51a1,1,0,0,1,0-1.3l29.85-30.43a1,1,0,0,1,1.28,0l29.86,30.51a1,1,0,0,1,0,1.31Z" transform="translate(-623.2 -488.49)"/><path class="cls-2" d="M661.15,493.48C647.3,493.48,636,505,636,519.16s11.29,25.68,25.14,25.68,25.13-11.54,25.13-25.68-11.21-25.68-25.13-25.68Zm0,4.58A20.69,20.69,0,0,1,680.52,512a12.81,12.81,0,0,1-9.29,3.6h-.88a12.4,12.4,0,0,1-5-1.15.08.08,0,0,1-.08-.08l-.24-.24a6.23,6.23,0,0,0-3.92-1.4,6.32,6.32,0,0,0-3.61,1.15l-1.28.82a12.42,12.42,0,0,1-4,.65h-.8a13.3,13.3,0,0,1-9.6-3.68,20.75,20.75,0,0,1,19.29-13.57ZM672,517.19c.08.41-1.2,1-2.16,1.15s-1.2-.08-1.28-.41.08-.74,1-.9,2.4-.16,2.4.16Zm-7.52,2a3.29,3.29,0,1,1-3.28-3.36,3.39,3.39,0,0,1,3.28,3.36Zm-10.57-1.56c-.08.41-.32.66-1.28.49s-2.24-.73-2.16-1.14,1.52-.41,2.48-.25,1,.57,1,.9Zm3.76,22.33a21.11,21.11,0,0,1-17.12-20.77,6.35,6.35,0,0,1,.07-1.15,41.09,41.09,0,0,1,4.89-.57,13.45,13.45,0,0,1,6.08,1.55,13.07,13.07,0,0,1,3.84,2.7,7.23,7.23,0,0,0,1.76,2.37l.4.41a9.88,9.88,0,0,1,1.28,3.6l.16.57c1,4.17.65,8.43-1.36,11.29Zm3.45-9.49c-.4,0-.64-1.39-.64-2.45s.32-1.15.64-1.15.64.17.64,1.15-.32,2.45-.64,2.45Zm3,9.65c-1.92-2.94-2.08-7.19-1-11.12l.08-.41a12.15,12.15,0,0,1,1.6-3.92l.24-.25a6.6,6.6,0,0,0,1.92-2.29l.24-.41a11.75,11.75,0,0,1,3.68-2.53,13.16,13.16,0,0,1,6-1.48,39.19,39.19,0,0,1,5,.66c0,.24.08.57.08.82A21.3,21.3,0,0,1,664,540.09Z" transform="translate(-623.2 -488.49)"/></svg>