<svg id="Слой_1" data-name="Слой 1" xmlns="http://www.w3.org/2000/svg" viewBox="0 0 39.89 39.89"><defs><style>.cls-1{fill:#ffed00;}.cls-1,.cls-2{fill-rule:evenodd;}.cls-2{fill:#1c1c1c;}</style></defs><path class="cls-1" d="M538,560.47a19.95,19.95,0,1,0-20-20A20,20,0,0,0,538,560.47Z" transform="translate(-518.06 -520.58)"/><path class="cls-2" d="M549,541.69l-.15-.17h0a1.75,1.75,0,0,0-1.27-.53h0l-.26,0-.88-9.64a1.91,1.91,0,0,0-.54-1.18,1.63,1.63,0,0,0-1.17-.49h-1a6,6,0,0,0-.88-2.12,3.08,3.08,0,0,0-5.44,0,6,6,0,0,0-.88,2.12h-1.18a1.65,1.65,0,0,0-1.18.49,1.9,1.9,0,0,0-.53,1.19l-1,12.42a5.14,5.14,0,0,0-1.67,1.81,1.5,1.5,0,0,0-1.68.33l0,0-2.6,2.76,5.65,6,.38.41,2.75-2.77,0,0a1.8,1.8,0,0,0,.32-1.62l.05-.05.14-.14a2.39,2.39,0,0,1,1.1-.5l7.06-.09a.55.55,0,0,0,.47-.21l4-5.36C548.81,544.12,549.86,542.85,549,541.69Zm-10.71-13.52a2,2,0,0,1,3.68,0,5.2,5.2,0,0,1,.66,1.53h-5A5.2,5.2,0,0,1,538.28,528.17Zm-3.59,3.29a.83.83,0,0,1,.23-.51.57.57,0,0,1,.42-.17h1c0,.15,0,.31,0,.47s0,.43,0,.65a.84.84,0,1,0,1.06-.22c0-.14,0-.29,0-.43s0-.32,0-.47h5.34c0,.15,0,.31,0,.47s0,.25,0,.38a.84.84,0,1,0,1.13.79.92.92,0,0,0-.09-.38s0-.11,0-.16q0-.32,0-.63c0-.16,0-.32,0-.47h.86a.59.59,0,0,1,.42.17.89.89,0,0,1,.23.52l.91,10-.16.13-2.63,2.58a2.55,2.55,0,0,0-1.06-.34h-4.22a4.87,4.87,0,0,0-3.9-.71,4.26,4.26,0,0,0-.54.15Zm0,20.14-2,2-4.58-4.85,1.85-2c.47-.35.62-.11.62-.11l0,.06,0,0s2.44,2.39,3.67,3.63C535.05,551.06,534.74,551.52,534.69,551.6Zm13.12-8a.1.1,0,0,0,0,.05h0l-3.85,5.16-6.88.08H537a3.52,3.52,0,0,0-1.68.75l-.06,0-.12-.13-3.31-3.26a4,4,0,0,1,2.72-2.21,3.6,3.6,0,0,1,3.13.6.58.58,0,0,0,.36.14h4.33c.16,0,.86.11.86.78a.72.72,0,0,1-.68.76h-4a.54.54,0,1,0,0,1.07h4.07a1.75,1.75,0,0,0,1.73-1.82,1.92,1.92,0,0,0-.11-.67l2.7-2.64.1-.09a1,1,0,0,1,.6-.2.66.66,0,0,1,.5.2h0l0,.07C548.54,542.87,547.81,543.64,547.81,543.64Z" transform="translate(-518.06 -520.58)"/></svg>