<?xml version="1.0" encoding="utf-8"?>
<!-- Generator: Adobe Illustrator 24.1.2, SVG Export Plug-In . SVG Version: 6.00 Build 0)  -->
<svg version="1.1" id="Слой_1" xmlns="http://www.w3.org/2000/svg" xmlns:xlink="http://www.w3.org/1999/xlink" x="0px" y="0px"
	 viewBox="0 0 62 54" style="enable-background:new 0 0 62 54;" xml:space="preserve">
<style type="text/css">
	.st0{fill:#FFED00;}
</style>
<path class="st0" d="M0.5,19.4h9.7c0.4,0,0.8-0.2,1-0.5C14.7,13,18.2,7.2,21.6,1.4c0.4-0.8,1.3-1.3,2.2-1.1c1,0.2,1.7,1.2,1.5,2.2
	C25.3,2.8,25.2,3,25,3.3c-1,1.7-2.1,3.5-3.1,5.2l-6.2,10.3c-0.1,0.2-0.2,0.3-0.3,0.5h31.3c-0.1-0.1-0.2-0.3-0.3-0.5
	c-3.1-5.1-6.1-10.2-9.2-15.4c-0.3-0.5-0.4-1-0.4-1.6c0.1-0.8,0.7-1.4,1.5-1.5c0.8-0.1,1.6,0.3,2,1c1.7,2.9,3.4,5.7,5.1,8.6
	c1.8,3,3.7,6.1,5.5,9.1c0.1,0.3,0.5,0.5,0.8,0.5h9.8V23h-4.1c-0.3,1.7-0.6,3.2-0.9,4.7c-1.3,7.1-2.7,14.1-4,21.2
	c-0.5,2.8-2.9,4.9-5.8,4.8H15.3c-2.9,0.1-5.4-2.1-5.8-4.9C7.9,40.4,6.3,32,4.7,23.6c0-0.1,0-0.3-0.1-0.4H0.5L0.5,19.4z M8.6,23.2
	c0,0.2,0,0.4,0.1,0.6c1.5,8.1,3,16.1,4.5,24.2c0,1.1,0.9,2,2,2c0.1,0,0.3,0,0.4,0h31c1.1,0.2,2.1-0.5,2.3-1.6c0,0,0-0.1,0-0.1
	c0-0.1,0-0.2,0-0.3c1.3-7.2,2.7-14.3,4-21.5c0.2-1.1,0.4-2.1,0.6-3.2L8.6,23.2z"/>
</svg>
