<svg id="Слой_1" data-name="Слой 1" xmlns="http://www.w3.org/2000/svg" viewBox="0 0 14.11 17.38"><defs><style>.cls-1{fill:#ffed00;fill-rule:evenodd;}</style></defs><path class="cls-1" d="M583.15,550.93a.86.86,0,0,0-.85-.82h-1.5a3.73,3.73,0,0,0-6.37-2.57,3.69,3.69,0,0,0-1.09,2.58h-1.62a.84.84,0,0,0-.84.79L570,563a.86.86,0,0,0,.85.85h12.48a.84.84,0,0,0,.78-.91Zm-7.52-2.19a2,2,0,0,1,2.88,0,2.06,2.06,0,0,1,.59,1.38H575A2,2,0,0,1,575.63,548.74Zm-3.86,13.37.74-10.29h.82v2.74a.85.85,0,1,0,1.7,0v-2.74h4.08v2.74a.85.85,0,1,0,1.7,0v-2.74h.71l.83,10.29Z" transform="translate(-570.01 -546.44)"/></svg>