<svg id="Слой_1" data-name="Слой 1" xmlns="http://www.w3.org/2000/svg" viewBox="0 0 7.46 13.34"><defs><style>.cls-1{fill:#fefefe;fill-rule:evenodd;}</style></defs><path class="cls-1" d="M538.1,540.3a1.27,1.27,0,0,0-.9.39c-.29.33-.26.52-.26,1v10.39c0,.41-.05.76.23,1.07.44.49.91.43,1.51.43h4.55a1.31,1.31,0,0,0,.9-.4c.29-.32.26-.51.26-1V541.8c0-.5,0-.75-.23-1.07a1.25,1.25,0,0,0-.87-.43c-.24,0-1,0-1.29,0h-3.25c-.2,0-.45,0-.65,0Zm1.66.53s1.51,0,1.7,0,.17,0,.21.08a.12.12,0,0,1-.09.17c-.06,0-1.52,0-1.71,0s-.18,0-.21-.08a.13.13,0,0,1,.1-.17Zm0,11.6h1.63c.11,0,.21,0,.27.06a1,1,0,0,1,0,.31c0,.11,0,.2-.1.23h-1.64c-.12,0-.21,0-.27-.06a1,1,0,0,1,0-.31c0-.12,0-.2.11-.23Zm-1.6-10.89a2.77,2.77,0,0,1,.5,0h4c.27,0,.63-.06.8.2a.79.79,0,0,1,0,.44v9.05a.79.79,0,0,1,0,.44c-.17.25-.54.19-.82.19h-3.52c-.17,0-.89,0-1,0-.41-.08-.36-.38-.36-.63v-9.05C537.79,541.89,537.74,541.62,538.16,541.54Z" transform="translate(-536.93 -540.29)"/></svg>