<svg id="Слой_1" data-name="Слой 1" xmlns="http://www.w3.org/2000/svg" viewBox="0 0 44.13 56.85"><defs><style>.cls-1{fill:#ffed00;fill-rule:evenodd;}</style></defs><path class="cls-1" d="M691.25,527.59a3.11,3.11,0,0,0-.29-.33h0a3.39,3.39,0,0,0-2.47-1h0a4.21,4.21,0,0,0-.5,0l-1.73-18.8a3.75,3.75,0,0,0-1-2.29,3.19,3.19,0,0,0-2.29-.95H681a11.86,11.86,0,0,0-1.71-4.15,6,6,0,0,0-10.61,0,11.86,11.86,0,0,0-1.71,4.15h-2.3a3.2,3.2,0,0,0-2.3.95,3.67,3.67,0,0,0-1,2.31l-1.89,24.2a10.45,10.45,0,0,0-3.25,3.55c-.73-.38-1.84-.49-3.28.64l0,0-5.06,5.37,11,11.67.74.78,5.35-5.4,0-.05a3.45,3.45,0,0,0,.64-3.15l.09-.11a3.25,3.25,0,0,1,.27-.26,4.55,4.55,0,0,1,2.15-1l13.75-.18a1.05,1.05,0,0,0,.91-.41l7.8-10.45C690.9,532.33,692.94,529.85,691.25,527.59Zm-20.86-26.34a4,4,0,0,1,7.16,0,9.53,9.53,0,0,1,1.29,3h-9.75A9.31,9.31,0,0,1,670.39,501.25Zm-7,6.4a1.61,1.61,0,0,1,.43-1,1.18,1.18,0,0,1,.83-.34h2c0,.3,0,.61,0,.92s0,.85.05,1.26a1.68,1.68,0,0,0-.34,1,1.64,1.64,0,1,0,2.4-1.44c0-.27,0-.55,0-.83s0-.62,0-.92h10.41c0,.3,0,.61,0,.92s0,.5,0,.74a1.64,1.64,0,0,0,.56,3.17,1.63,1.63,0,0,0,1.46-2.37l0-.31c0-.41,0-.82,0-1.23s0-.62,0-.92h1.67a1.12,1.12,0,0,1,.81.33,1.63,1.63,0,0,1,.45,1L686,527.11a2.14,2.14,0,0,0-.31.27l-5.14,5a4.84,4.84,0,0,0-2-.66l-.16,0h-8.08a9.57,9.57,0,0,0-7.59-1.39,10.18,10.18,0,0,0-1.06.3Zm0,39.25-3.81,3.85-8.92-9.46,3.59-3.81c.92-.7,1.22-.21,1.22-.21l.07.1.07.07s4.74,4.66,7.15,7.06C664.08,545.85,663.49,546.76,663.37,546.9ZM689,531.39l-.07.09h0l-7.52,10.06-13.39.17h-.12a6.81,6.81,0,0,0-3.28,1.47l-.11.09-.25-.25c-1.48-1.49-4.93-4.89-6.44-6.36a7.65,7.65,0,0,1,5.3-4.3c4-.82,6.1,1.16,6.11,1.17a1,1,0,0,0,.7.27h8.44c.3,0,1.67.22,1.67,1.52a1.37,1.37,0,0,1-1.32,1.47h-7.91a1,1,0,0,0,0,2.09h8a3.45,3.45,0,0,0,3.37-3.56,3.66,3.66,0,0,0-.22-1.31l5.26-5.15a1.79,1.79,0,0,1,.19-.16,2,2,0,0,1,1.17-.4,1.36,1.36,0,0,1,1,.39h0a1.42,1.42,0,0,1,.12.13C690.38,529.9,689,531.39,689,531.39Z" transform="translate(-647.78 -496.9)"/></svg>