<svg id="Слой_1" data-name="Слой 1" xmlns="http://www.w3.org/2000/svg" viewBox="0 0 39.89 39.89"><defs><style>.cls-1{fill:#ffed00;}.cls-2,.cls-3{fill:#1c1c1c;}.cls-2{fill-rule:evenodd;}</style></defs><circle class="cls-1" cx="960.38" cy="538.11" r="19.95" transform="translate(-773.38 783.18) rotate(-73.15)"/><path class="cls-2" d="M969.17,535.94a.38.38,0,0,0-.38.38v7.16a1.27,1.27,0,0,1-.38.92,1.29,1.29,0,0,1-.92.39h-13a.37.37,0,0,0-.27.11l-3.17,2.88v-2.61a.38.38,0,0,0-.38-.38h-.58a1.29,1.29,0,0,1-.92-.39,1.27,1.27,0,0,1-.38-.92v-9.93a1.34,1.34,0,0,1,.38-.92,1.33,1.33,0,0,1,.92-.38h16.68a.38.38,0,1,0,0-.76H950.11a2,2,0,0,0-1.45.61,2,2,0,0,0-.61,1.45v9.93a2,2,0,0,0,.61,1.46h0a2.06,2.06,0,0,0,1.45.6h.2v3.09a.39.39,0,0,0,.1.25.38.38,0,0,0,.54,0l3.7-3.37h12.84a2.06,2.06,0,0,0,1.45-.6h0a2,2,0,0,0,.61-1.46v-7.16A.38.38,0,0,0,969.17,535.94Z" transform="translate(-940.43 -518.16)"/><rect class="cls-3" x="14" y="18" width="9.05" height="0.8" rx="0.4"/><path class="cls-2" d="M962,538.2h-7.16a.4.4,0,0,0,0,.8H962a.4.4,0,1,0,0-.8Z" transform="translate(-940.43 -518.16)"/><path class="cls-2" d="M954.84,540.2a.4.4,0,0,0,0,.8H962a.4.4,0,1,0,0-.8Z" transform="translate(-940.43 -518.16)"/><path class="cls-2" d="M972.52,528.31l-1.83-1a.38.38,0,0,0-.52.13l-.58,1v0l-6.06,10.5a.3.3,0,0,0,0,.15l-.36,2.72a.38.38,0,0,0,.6.37l2.18-1.67h0a.43.43,0,0,0,.11-.12l6.06-10.5v0l.58-1A.39.39,0,0,0,972.52,528.31Zm-1.88-.21,1.17.68-.21.36-1.17-.68Zm-.59,1,1,.57.2.12-5.69,9.85-1.18-.69ZM964,541l.17-1.29.86.5Z" transform="translate(-940.43 -518.16)"/></svg>