<svg id="Слой_1" data-name="Слой 1" xmlns="http://www.w3.org/2000/svg" viewBox="0 0 47.21 41.72"><defs><style>.cls-1,.cls-2{fill:#1c1c1c;}.cls-1{fill-rule:evenodd;}</style></defs><path class="cls-1" d="M40.46,16.74a.72.72,0,0,0-.72.72V31.2a2.51,2.51,0,0,1-2.5,2.5H12.37a.73.73,0,0,0-.52.21L5.78,39.42v-5a.72.72,0,0,0-.72-.72H4a2.52,2.52,0,0,1-2.49-2.5v-19A2.52,2.52,0,0,1,4,9.7H36A.72.72,0,0,0,36.69,9,.73.73,0,0,0,36,8.25H4A3.93,3.93,0,0,0,0,12.19H0v19A3.93,3.93,0,0,0,1.18,34h0A3.94,3.94,0,0,0,4,35.14h.39V41a.72.72,0,0,0,.72.72.73.73,0,0,0,.49-.19l7.1-6.44h24.6A4,4,0,0,0,40.05,34h0a3.92,3.92,0,0,0,1.16-2.78V17.46a.73.73,0,0,0-.74-.72Z" transform="translate(-0.03 -0.03)"/><rect class="cls-2" x="12.2" y="17.13" width="17.34" height="1.53" rx="0.76"/><path class="cls-1" d="M26.73,21H13a.77.77,0,0,0,0,1.54H26.7a.77.77,0,0,0,0-1.54Z" transform="translate(-0.03 -0.03)"/><rect class="cls-2" x="12.2" y="24.87" width="15.27" height="1.53" rx="0.76"/><path class="cls-1" d="M46.88,2.13l-3.51-2a.73.73,0,0,0-1,.25v0l-1.1,1.91h0L29.65,22.44a.75.75,0,0,0-.09.29l-.7,5.21a.77.77,0,0,0,.14.57.71.71,0,0,0,1,.13h0l4.19-3.2h0a.8.8,0,0,0,.22-.23L46,5h0l1.11-1.91a.73.73,0,0,0-.25-1Zm-3.6-.41L45.53,3l-.4.69-2.25-1.3ZM30.83,24l1.65,1-2,1.51Zm2.68-.12-2.26-1.31L42.15,3.66,44.41,5Z" transform="translate(-0.03 -0.03)"/></svg>