<svg id="Слой_1" data-name="Слой 1" xmlns="http://www.w3.org/2000/svg" viewBox="0 0 43.16 44.1"><defs><style>.cls-1{fill:#ffed00;fill-rule:evenodd;}</style></defs><path class="cls-1" d="M522.08,612.9A22.06,22.06,0,1,0,543.66,635a21.85,21.85,0,0,0-21.58-22.05Zm0,3.93a17.76,17.76,0,0,1,16.63,11.94,10.94,10.94,0,0,1-8,3.09H530a10.75,10.75,0,0,1-4.27-1,.07.07,0,0,1-.07-.07l-.2-.21a5.33,5.33,0,0,0-6.46-.21l-1.1.7a10.74,10.74,0,0,1-3.44.56h-.68a11.43,11.43,0,0,1-8.25-3.16,17.82,17.82,0,0,1,16.56-11.66Zm9.28,16.43c.07.36-1,.85-1.86,1s-1-.07-1.1-.35.07-.64.9-.78,2.06-.14,2.06.14ZM524.9,635a2.82,2.82,0,1,1-2.82-2.88A2.91,2.91,0,0,1,524.9,635Zm-9.07-1.33c-.07.35-.28.56-1.1.42s-1.93-.64-1.86-1,1.31-.35,2.13-.21.89.49.83.78Zm3.23,19.17A18.14,18.14,0,0,1,504.35,635a4.62,4.62,0,0,1,.07-1,34.46,34.46,0,0,1,4.19-.5,11.57,11.57,0,0,1,5.22,1.34,10.86,10.86,0,0,1,3.3,2.32,6.45,6.45,0,0,0,1.51,2l.35.35a8.8,8.8,0,0,1,1.1,3.09l.13.5c.9,3.58.56,7.23-1.16,9.69Zm3-8.15c-.34,0-.55-1.19-.55-2.11s.28-1,.55-1,.55.14.55,1-.27,2.11-.55,2.11Zm2.55,8.29c-1.65-2.53-1.79-6.18-.83-9.55l.07-.35a10.47,10.47,0,0,1,1.37-3.37l.21-.22a5.62,5.62,0,0,0,1.65-2l.2-.35A10.06,10.06,0,0,1,530.4,635a11.41,11.41,0,0,1,5.15-1.26,34,34,0,0,1,4.33.56c0,.21.07.49.07.7A18.3,18.3,0,0,1,524.56,652.93Z" transform="translate(-500.5 -612.9)"/></svg>