<svg id="Слой_1" data-name="Слой 1" xmlns="http://www.w3.org/2000/svg" viewBox="0 0 39.89 39.89"><defs><style>.cls-1{fill:#ffed00;}.cls-1,.cls-2{fill-rule:evenodd;}.cls-2{fill:#222;}</style></defs><path class="cls-1" d="M540.33,560.28a19.95,19.95,0,1,0-19.94-19.95A20,20,0,0,0,540.33,560.28Z" transform="translate(-520.39 -520.39)"/><path class="cls-2" d="M540.33,522.17A17.82,17.82,0,1,0,557.77,540a17.66,17.66,0,0,0-17.44-17.82Zm0,3.18A14.36,14.36,0,0,1,553.77,535a8.83,8.83,0,0,1-6.44,2.5h-.61a8.59,8.59,0,0,1-3.44-.79.06.06,0,0,1-.06-.06l-.17-.17a4.27,4.27,0,0,0-2.72-1,4.42,4.42,0,0,0-2.5.8l-.88.57a8.8,8.8,0,0,1-2.78.45h-.55a9.27,9.27,0,0,1-6.67-2.55,14.4,14.4,0,0,1,13.38-9.42Zm7.5,13.27c0,.29-.83.68-1.5.8s-.83-.06-.89-.29.06-.51.72-.62,1.67-.11,1.67.11ZM542.61,540a2.28,2.28,0,1,1-2.28-2.33,2.35,2.35,0,0,1,2.28,2.33Zm-7.33-1.08c0,.28-.22.45-.89.34s-1.55-.51-1.5-.8,1.06-.28,1.72-.17.73.4.67.63Zm2.61,15.48A14.63,14.63,0,0,1,526,540a4.3,4.3,0,0,1,0-.8,28.14,28.14,0,0,1,3.39-.4,10.63,10.63,0,0,1,6.89,3,4.86,4.86,0,0,0,1.22,1.65l.27.28a6.94,6.94,0,0,1,.89,2.5l.11.4c.73,2.89.45,5.84-.94,7.82Zm2.39-6.58c-.28,0-.45-1-.45-1.7s.23-.79.45-.79.44.11.44.79-.22,1.7-.44,1.7Zm2.05,6.7c-1.33-2-1.44-5-.66-7.72l.05-.28a8.6,8.6,0,0,1,1.11-2.72l.17-.17a4.68,4.68,0,0,0,1.33-1.59l.17-.29a8.11,8.11,0,0,1,2.55-1.75,9.11,9.11,0,0,1,4.17-1,26.94,26.94,0,0,1,3.49.46c0,.17.06.4.06.57A14.77,14.77,0,0,1,542.33,554.51Z" transform="translate(-520.39 -520.39)"/></svg>