<svg id="Слой_1" data-name="Слой 1" xmlns="http://www.w3.org/2000/svg" viewBox="0 0 47.25 41.78"><defs><style>.cls-1,.cls-2{fill:#ffed00;}.cls-1{fill-rule:evenodd;}</style></defs><path class="cls-1" d="M671.49,515.71a.72.72,0,0,0-.72.72v13.74a2.51,2.51,0,0,1-2.5,2.5H643.4a.72.72,0,0,0-.52.21l-6.07,5.51v-5a.72.72,0,0,0-.72-.72H635a2.51,2.51,0,0,1-2.49-2.5v-19a2.51,2.51,0,0,1,2.49-2.5h32a.72.72,0,0,0,.72-.72.73.73,0,0,0-.72-.73H635a3.94,3.94,0,0,0-3.94,3.95v19a3.93,3.93,0,0,0,1.15,2.78h0a3.94,3.94,0,0,0,2.78,1.16h.39V540a.72.72,0,0,0,1.21.53l7.1-6.44h24.6a4,4,0,0,0,2.79-1.16h0a3.9,3.9,0,0,0,1.16-2.78V516.43A.73.73,0,0,0,671.49,515.71Z" transform="translate(-631.03 -498.97)"/><rect class="cls-2" x="12.23" y="17.16" width="17.34" height="1.53" rx="0.77"/><path class="cls-1" d="M657.76,520H644a.77.77,0,0,0,0,1.54h13.73a.77.77,0,0,0,0-1.54Z" transform="translate(-631.03 -498.97)"/><rect class="cls-2" x="12.23" y="24.9" width="15.27" height="1.53" rx="0.77"/><path class="cls-1" d="M677.91,501.1l-3.51-2a.72.72,0,0,0-1,.27l-1.1,1.91,0,0-11.62,20.13a.75.75,0,0,0-.09.29l-.7,5.21a.75.75,0,0,0,.14.57.71.71,0,0,0,1,.13l4.19-3.2h0a.8.8,0,0,0,.22-.23L677.06,504a.06.06,0,0,0,0,0l1.11-1.91A.72.72,0,0,0,677.91,501.1Zm-3.6-.41,2.25,1.3-.4.69-2.25-1.3Zm-12.45,22.25,1.65.95-2,1.51Zm2.68-.12-2.26-1.31,10.9-18.88,2.26,1.31Z" transform="translate(-631.03 -498.97)"/></svg>